# xmcd
# 
# Track frame offsets:
#     150
#     13252
#     32147
#     54597
#     73221
#     85427
#     107120
#     121287
#     144292
#     166937
#     199151
#     221439
#     241128
#     260951
#     277058
#     293229
#     310470
#     327081
#     340574
# 
# Disc length: 4791
# 
# Revision: 3
# Processed by: cddbd v1.5.2PL0 Copyright (c) Steve Scherf et al.
# Submitted via: BonkEnc v1.0.8
# 
DISCID=2812b513
DTITLE=Eric Clapton - Complete Clapton [CD1]
DYEAR=2007
DGENRE=Blues
TTITLE0=I feel free
TTITLE1=Sunshine of your love
TTITLE2=White room
TTITLE3=Crossroads
TTITLE4=Badge
TTITLE5=Presence of the Lord
TTITLE6=After midnight
TTITLE7=Let it rain
TTITLE8=Bell bottom blues
TTITLE9=Layla
TTITLE10=Let it grow
TTITLE11=I shot the sheriff
TTITLE12=Knockin' on heaven's door
TTITLE13=Hello old friend
TTITLE14=Cocaine
TTITLE15=Lay down sally
TTITLE16=Wonderful tonight
TTITLE17=Promises
TTITLE18=I can't stand it
EXTD=YEAR: 2007
EXTT0=
EXTT1=
EXTT2=
EXTT3=
EXTT4=
EXTT5=
EXTT6=
EXTT7=
EXTT8=
EXTT9=
EXTT10=
EXTT11=
EXTT12=
EXTT13=
EXTT14=
EXTT15=
EXTT16=
EXTT17=
EXTT18=
PLAYORDER=
